<?xml version="1.0" encoding="UTF-8" standalone="no"?>
<!-- Created with Inkscape (http://www.inkscape.org/) -->

<svg
   xmlns:dc="http://purl.org/dc/elements/1.1/"
   xmlns:cc="http://creativecommons.org/ns#"
   xmlns:rdf="http://www.w3.org/1999/02/22-rdf-syntax-ns#"
   xmlns:svg="http://www.w3.org/2000/svg"
   xmlns="http://www.w3.org/2000/svg"
   xmlns:sodipodi="http://sodipodi.sourceforge.net/DTD/sodipodi-0.dtd"
   xmlns:inkscape="http://www.inkscape.org/namespaces/inkscape"
   width="256"
   height="196"
   id="svg2"
   version="1.1"
   inkscape:version="0.48.4 r9939"
   sodipodi:docname="watch.svg"
   inkscape:export-filename="/home/piggz/projects/JewelRush/qml/JewelRush/pics/watch.png"
   inkscape:export-xdpi="90"
   inkscape:export-ydpi="90">
  <defs
     id="defs4">
    <marker
       inkscape:stockid="Arrow2Lstart"
       orient="auto"
       refY="0"
       refX="0"
       id="Arrow2Lstart"
       style="overflow:visible">
      <path
         id="path3787"
         style="fill-rule:evenodd;stroke-width:0.625;stroke-linejoin:round"
         d="M 8.7185878,4.0337352 -2.2072895,0.01601326 8.7185884,-4.0017078 c -1.7454984,2.3720609 -1.7354408,5.6174519 -6e-7,8.035443 z"
         transform="matrix(1.1,0,0,1.1,1.1,0)"
         inkscape:connector-curvature="0" />
    </marker>
    <marker
       inkscape:stockid="Arrow1Send"
       orient="auto"
       refY="0"
       refX="0"
       id="Arrow1Send"
       style="overflow:visible">
      <path
         id="path3784"
         d="M 0,0 5,-5 -12.5,0 5,5 0,0 z"
         style="fill-rule:evenodd;stroke:#000000;stroke-width:1pt"
         transform="matrix(-0.2,0,0,-0.2,-1.2,0)"
         inkscape:connector-curvature="0" />
    </marker>
    <marker
       inkscape:stockid="RazorWire"
       id="RazorWire"
       refX="0"
       refY="0"
       orient="auto"
       style="overflow:visible">
      <path
         id="path4001"
         transform="scale(0.8,0.8)"
         style="fill:#808080;fill-opacity:1;fill-rule:evenodd;stroke:#000000;stroke-width:0.1pt"
         d="m 0.02272727,-0.74009011 0,1.4375 -7.78124997,2.31250001 18.4374997,0 -7.1874997,-2.31250001 0,-1.4375 7.2499997,-2.15624999 -18.4687497,0 7.74999997,2.15624999 z"
         inkscape:connector-curvature="0" />
    </marker>
    <marker
       inkscape:stockid="Tail"
       orient="auto"
       refY="0"
       refX="0"
       id="Tail"
       style="overflow:visible">
      <g
         id="g3805"
         transform="scale(-1.2,-1.2)">
        <path
           id="path3807"
           d="M -3.8048674,-3.9585227 0.54352094,0"
           style="fill:none;stroke:#000000;stroke-width:0.80000001;stroke-linecap:round"
           inkscape:connector-curvature="0" />
        <path
           id="path3809"
           d="M -1.2866832,-3.9585227 3.0617053,0"
           style="fill:none;stroke:#000000;stroke-width:0.80000001;stroke-linecap:round"
           inkscape:connector-curvature="0" />
        <path
           id="path3811"
           d="M 1.3053582,-3.9585227 5.6537466,0"
           style="fill:none;stroke:#000000;stroke-width:0.80000001;stroke-linecap:round"
           inkscape:connector-curvature="0" />
        <path
           id="path3813"
           d="M -3.8048674,4.1775838 0.54352094,0.21974226"
           style="fill:none;stroke:#000000;stroke-width:0.80000001;stroke-linecap:round"
           inkscape:connector-curvature="0" />
        <path
           id="path3815"
           d="M -1.2866832,4.1775838 3.0617053,0.21974226"
           style="fill:none;stroke:#000000;stroke-width:0.80000001;stroke-linecap:round"
           inkscape:connector-curvature="0" />
        <path
           id="path3817"
           d="M 1.3053582,4.1775838 5.6537466,0.21974226"
           style="fill:none;stroke:#000000;stroke-width:0.80000001;stroke-linecap:round"
           inkscape:connector-curvature="0" />
      </g>
    </marker>
    <marker
       inkscape:stockid="Arrow2Mend"
       orient="auto"
       refY="0"
       refX="0"
       id="Arrow2Mend"
       style="overflow:visible">
      <path
         id="path3796"
         style="fill-rule:evenodd;stroke-width:0.625;stroke-linejoin:round"
         d="M 8.7185878,4.0337352 -2.2072895,0.01601326 8.7185884,-4.0017078 c -1.7454984,2.3720609 -1.7354408,5.6174519 -6e-7,8.035443 z"
         transform="scale(-0.6,-0.6)"
         inkscape:connector-curvature="0" />
    </marker>
    <marker
       inkscape:stockid="TriangleOutL"
       orient="auto"
       refY="0"
       refX="0"
       id="TriangleOutL"
       style="overflow:visible">
      <path
         id="path3911"
         d="m 5.77,0 -8.65,5 0,-10 8.65,5 z"
         style="fill-rule:evenodd;stroke:#000000;stroke-width:1pt"
         transform="scale(0.8,0.8)"
         inkscape:connector-curvature="0" />
    </marker>
    <filter
       inkscape:collect="always"
       id="filter3911">
      <feGaussianBlur
         inkscape:collect="always"
         stdDeviation="1.5457093"
         id="feGaussianBlur3913" />
    </filter>
    <filter
       inkscape:collect="always"
       id="filter3941">
      <feGaussianBlur
         inkscape:collect="always"
         stdDeviation="1.5096816"
         id="feGaussianBlur3943" />
    </filter>
  </defs>
  <sodipodi:namedview
     id="base"
     pagecolor="#ffffff"
     bordercolor="#666666"
     borderopacity="1.0"
     inkscape:pageopacity="0.0"
     inkscape:pageshadow="2"
     inkscape:zoom="0.98994949"
     inkscape:cx="-88.971229"
     inkscape:cy="248.93266"
     inkscape:document-units="px"
     inkscape:current-layer="layer1"
     showgrid="false"
     inkscape:window-width="1885"
     inkscape:window-height="1060"
     inkscape:window-x="33"
     inkscape:window-y="-3"
     inkscape:window-maximized="1" />
  <metadata
     id="metadata7">
    <rdf:RDF>
      <cc:Work
         rdf:about="">
        <dc:format>image/svg+xml</dc:format>
        <dc:type
           rdf:resource="http://purl.org/dc/dcmitype/StillImage" />
        <dc:title></dc:title>
      </cc:Work>
    </rdf:RDF>
  </metadata>
  <g
     inkscape:label="Layer 1"
     inkscape:groupmode="layer"
     id="layer1"
     transform="translate(0,-856.36218)">
    <g
       id="g3869"
       style="font-size:40px;font-style:normal;font-weight:normal;line-height:125%;letter-spacing:0px;word-spacing:0px;fill:#000000;fill-opacity:1;stroke:#ffffff;font-family:Sans;stroke-width:1.73843578000000010;stroke-miterlimit:4;stroke-dasharray:none;stroke-opacity:1;filter:url(#filter3911)"
       transform="matrix(1.0925235,-0.31364613,0.30487849,1.1239421,-177.04832,585.79182)">
      <path
         id="path3871"
         style="font-style:italic;font-variant:normal;font-stretch:normal;font-family:Manga Speak;-inkscape-font-specification:Manga Speak Italic;stroke-width:1.73843578000000010;stroke-miterlimit:4;stroke-dasharray:none;stroke:#ffffff;stroke-opacity:1;fill:#000000;fill-opacity:1"
         d="m 128.23047,315.44661 0.13672,0 c 0.49476,0.0261 0.72262,0.14977 0.68359,0.37109 -1.0417,3.60681 -4.01695,14.93492 -8.92578,33.98438 l -0.54687,2.07031 -0.0195,0.0391 -0.0391,0 c -1.28908,-0.10416 -1.9271,-0.19531 -1.91406,-0.27344 -1.27606,-4.59634 -2.62372,-8.62629 -4.04297,-12.08984 -0.35158,-0.85936 -0.78778,-1.56248 -1.30859,-2.10937 l -0.23438,-0.0977 c -0.14324,1e-5 -0.89845,0.80079 -2.26562,2.40234 -3.26824,3.63282 -5.98308,6.89454 -8.14453,9.78516 -0.15626,0.57292 -0.42319,0.85938 -0.80079,0.85937 l -0.11718,0 c -0.29949,10e-6 -0.891933,-0.20833 -1.777348,-0.625 -0.182293,10e-6 -0.214845,-0.30598 -0.09766,-0.91796 0.351561,-3.54166 2.174478,-14.41405 5.468758,-32.61719 0.31249,-0.24736 0.76822,-0.37106 1.36718,-0.3711 l 0.0391,0 c 1.08072,4e-5 1.86197,0.18233 2.34375,0.54688 l -0.0195,0.0977 c -0.1172,3e-5 -0.31903,0.70316 -0.60547,2.10937 l -0.44922,2.26563 c -0.53387,2.64325 -1.86199,9.87632 -3.98438,21.69921 l -0.0781,0.50782 0.0195,0 c 2.79947,-3.51562 5.22785,-6.31509 7.28516,-8.39844 1.04165,-1.06769 1.74477,-1.60154 2.10937,-1.60156 0.67707,0.28647 1.62759,1.52996 2.85156,3.73047 1.28905,2.35678 2.43488,4.70704 3.4375,7.05078 l 0.0195,-0.0391 c 4.66144,-18.51559 7.03123,-27.85152 7.10938,-28.00781 1.11976,-0.24736 1.95309,-0.37105 2.5,-0.37109"
         inkscape:connector-curvature="0" />
      <path
         id="path3873"
         style="font-style:italic;font-variant:normal;font-stretch:normal;font-family:Manga Speak;-inkscape-font-specification:Manga Speak Italic;stroke-width:1.73843578000000010;stroke-miterlimit:4;stroke-dasharray:none;stroke:#ffffff;stroke-opacity:1;fill:#000000;fill-opacity:1"
         d="m 138.23047,328.3763 0.37109,0 c 2.16145,2e-5 3.60676,1.02866 4.33594,3.08593 0.3255,1.14586 0.44269,1.93362 0.35156,2.36328 l -4.25781,18.08594 -2.92969,-0.15625 -0.0977,-0.11719 0.21484,-0.80078 0.29297,-1.46484 0.27344,-1.07422 c -3.89324,2.22657 -6.6211,3.33985 -8.1836,3.33984 l -0.70312,0 c -1.13282,10e-6 -1.79037,-0.66406 -1.97266,-1.99218 -0.0391,-0.32552 -0.013,-0.91797 0.0781,-1.77735 0.45572,-2.22655 1.73176,-4.36848 3.82812,-6.42578 1.99218,-1.66665 3.83463,-2.87108 5.52734,-3.61328 1.0026,-0.46873 2.35025,-0.97655 4.04297,-1.52344 l 0.0977,-0.3125 0.3125,-1.5625 c 0.29946,-1.48435 -0.27996,-2.35024 -1.73828,-2.59765 l -0.48828,-0.0586 c -1.44533,2e-5 -3.33986,0.4883 -5.6836,1.46485 -0.66406,-0.8203 -0.94401,-1.49087 -0.83984,-2.01172 0.22135,-1.09373 2.33072,-2.02472 6.32812,-2.79297 l 0.83985,-0.0586 m -8.26172,18.02734 -0.0391,0.27344 c -0.1823,0.85938 0.17577,1.28906 1.07422,1.28906 1.22395,0 3.35285,-0.82682 6.38671,-2.48047 l 0,-0.0586 1.26954,-5.76172 c -1.65366,0.14324 -3.26824,0.66407 -4.84375,1.5625 -1.40626,1.04167 -2.13543,1.70574 -2.1875,1.99219 -0.89845,1.13282 -1.45183,2.19401 -1.66016,3.18359"
         inkscape:connector-curvature="0" />
      <path
         id="path3875"
         style="font-style:italic;font-variant:normal;font-stretch:normal;font-family:Manga Speak;-inkscape-font-specification:Manga Speak Italic;stroke-width:1.73843578000000010;stroke-miterlimit:4;stroke-dasharray:none;stroke:#ffffff;stroke-opacity:1;fill:#000000;fill-opacity:1"
         d="m 158.93359,315.70051 c 0.63801,0.0652 1.33462,0.48832 2.08985,1.26954 0.14321,0.53388 -0.0195,1.94664 -0.48828,4.23828 l -0.23438,1.23047 c -0.45575,2.25263 -1.04819,4.96096 -1.77734,8.125 l 5.82031,0.91796 -0.11719,1.23047 c -0.16929,0.84638 -0.51434,1.26955 -1.03515,1.26953 -0.89846,2e-5 -2.68231,-0.16925 -5.35157,-0.50781 l -0.0977,0.15625 c -1.91408,8.00783 -3.44402,13.98438 -4.58985,17.92969 -0.026,0.11719 -0.26042,0.23438 -0.70312,0.35156 l -0.29297,0 c -0.54688,0 -1.38673,-0.33854 -2.51953,-1.01562 l 0.0195,-0.0586 4.27734,-17.77343 c -4.72657,-0.5729 -7.16797,-0.89842 -7.32422,-0.97657 l 0.21485,-1.58203 c 0.15624,-0.7682 0.42317,-1.24346 0.80078,-1.42578 0.49479,2e-5 2.83202,0.30601 7.01172,0.91797 l 0.0195,-0.0391 0.0586,-0.15625 c 2.18749,-9.19268 3.3203,-13.78903 3.39844,-13.78907 0.2604,-0.20829 0.53384,-0.31246 0.82031,-0.3125"
         inkscape:connector-curvature="0" />
      <path
         id="path3877"
         style="font-style:italic;font-variant:normal;font-stretch:normal;font-family:Manga Speak;-inkscape-font-specification:Manga Speak Italic;stroke-width:1.73843578000000010;stroke-miterlimit:4;stroke-dasharray:none;stroke:#ffffff;stroke-opacity:1;fill:#000000;fill-opacity:1"
         d="m 180.71094,328.22005 c 3.00779,2e-5 5.06508,0.93752 6.17187,2.8125 0.19529,0.48179 0.27993,0.80731 0.25391,0.97656 l -3.00781,2.94922 -0.0586,0 c -1.78387,-1.43228 -3.60678,-2.14842 -5.46875,-2.14844 -2.95574,2e-5 -5.55339,1.95965 -7.79297,5.87891 l -0.60547,1.69921 c -0.57292,2.85158 0.97656,4.9284 4.64844,6.23047 1.01562,0.26043 1.92707,0.39063 2.73438,0.39063 0.79425,0 2.05727,-0.30599 3.78906,-0.91797 l 0.27344,0 c 0.78123,1e-5 1.05467,0.56641 0.82031,1.69922 -0.53387,1.875 -0.96356,2.8125 -1.28906,2.8125 -2.47398,0.87239 -4.8047,1.30859 -6.99219,1.30859 -4.98698,0 -7.66276,-2.53255 -8.02734,-7.59765 -0.0521,-1.49739 0.0521,-2.89062 0.3125,-4.17969 l 0.11718,-0.58594 c 0.95052,-4.76561 3.97786,-8.23566 9.08203,-10.41016 1.92707,-0.61195 3.60676,-0.91794 5.03907,-0.91796"
         inkscape:connector-curvature="0" />
      <path
         id="path3879"
         style="font-style:italic;font-variant:normal;font-stretch:normal;font-family:Manga Speak;-inkscape-font-specification:Manga Speak Italic;stroke-width:1.73843578000000010;stroke-miterlimit:4;stroke-dasharray:none;stroke:#ffffff;stroke-opacity:1;fill:#000000;fill-opacity:1"
         d="m 196.86328,315.2513 0.0586,0 -3.53515,14.92187 c 1.49739,-1.09373 3.21613,-1.6406 5.15625,-1.64062 l 0.0586,0 c 2.20051,2e-5 4.00389,0.49481 5.41016,1.48437 0.92446,0.8594 1.46482,2.35679 1.62109,4.49219 0.0521,1.95314 -0.0912,3.78256 -0.42969,5.48828 l -0.17578,0.87891 c -0.57293,2.89063 -1.73829,6.4974 -3.49609,10.82031 -0.18231,0.14323 -0.33856,0.21484 -0.46875,0.21484 l -0.27344,0 c -0.52084,0 -1.13282,-0.22135 -1.83594,-0.66406 0.93749,-2.90364 1.71223,-5.86588 2.32422,-8.88672 l 0.0391,-0.21484 c 1.02863,-5.11718 0.99607,-8.19009 -0.0977,-9.21875 -0.55991,-0.58592 -1.41277,-0.87889 -2.55859,-0.87891 -1.57554,2e-5 -3.60027,0.5469 -6.07422,1.64063 l -4.00391,16.91406 -0.0586,0.0391 -0.0586,0 -1.85547,-0.0391 -0.0391,-0.0586 6.52344,-32.59765 c 0.24739,-1.22392 1.0677,-2.05075 2.46094,-2.48047 l 1.30859,-0.21484"
         inkscape:connector-curvature="0" />
      <path
         id="path3881"
         style="font-style:italic;font-variant:normal;font-stretch:normal;font-family:Manga Speak;-inkscape-font-specification:Manga Speak Italic;stroke-width:1.73843578000000010;stroke-miterlimit:4;stroke-dasharray:none;stroke:#ffffff;stroke-opacity:1;fill:#000000;fill-opacity:1"
         d="m 250.02734,312.47786 c 0.36455,0.80733 0.48174,1.56254 0.35157,2.26562 -0.14327,0.70317 -0.56644,1.15889 -1.26954,1.36719 -1.52346,0.4167 -5.44273,0.8529 -11.75781,1.30859 l -0.0586,0.11719 c -2.72137,10.50784 -5.28647,19.987 -7.69531,28.4375 -1.10679,3.69792 -1.75783,5.54688 -1.95313,5.54688 -0.26043,0.26041 -0.54688,0.39062 -0.85937,0.39062 -0.58595,0 -1.23048,-0.34505 -1.9336,-1.03515 l 0,-0.0391 9.33594,-33.20312 -9.33594,0.54687 c -0.54688,-0.67705 -0.76172,-1.31507 -0.64453,-1.91406 0.33854,-0.85934 0.73567,-1.28902 1.19141,-1.28906 l 24.6289,-2.5"
         inkscape:connector-curvature="0" />
      <path
         id="path3883"
         style="font-style:italic;font-variant:normal;font-stretch:normal;font-family:Manga Speak;-inkscape-font-specification:Manga Speak Italic;stroke-width:1.73843578000000010;stroke-miterlimit:4;stroke-dasharray:none;stroke:#ffffff;stroke-opacity:1;fill:#000000;fill-opacity:1"
         d="m 256.94141,315.2513 0.0586,0 -3.53516,14.92187 c 1.49739,-1.09373 3.21614,-1.6406 5.15625,-1.64062 l 0.0586,0 c 2.2005,2e-5 4.00389,0.49481 5.41015,1.48437 0.92446,0.8594 1.46483,2.35679 1.6211,4.49219 0.0521,1.95314 -0.0912,3.78256 -0.42969,5.48828 l -0.17578,0.87891 c -0.57294,2.89063 -1.7383,6.4974 -3.4961,10.82031 -0.1823,0.14323 -0.33855,0.21484 -0.46875,0.21484 l -0.27343,0 c -0.52085,0 -1.13283,-0.22135 -1.83594,-0.66406 0.93749,-2.90364 1.71223,-5.86588 2.32422,-8.88672 l 0.0391,-0.21484 c 1.02863,-5.11718 0.99608,-8.19009 -0.0977,-9.21875 -0.55991,-0.58592 -1.41277,-0.87889 -2.55859,-0.87891 -1.57553,2e-5 -3.60027,0.5469 -6.07422,1.64063 l -4.0039,16.91406 -0.0586,0.0391 -0.0586,0 -1.85547,-0.0391 -0.0391,-0.0586 6.52343,-32.59765 c 0.24739,-1.22392 1.06771,-2.05075 2.46094,-2.48047 l 1.3086,-0.21484"
         inkscape:connector-curvature="0" />
      <path
         id="path3885"
         style="font-style:italic;font-variant:normal;font-stretch:normal;font-family:Manga Speak;-inkscape-font-specification:Manga Speak Italic;stroke-width:1.73843578000000010;stroke-miterlimit:4;stroke-dasharray:none;stroke:#ffffff;stroke-opacity:1;fill:#000000;fill-opacity:1"
         d="m 282.41016,328.6888 0.54687,0 c 0.8854,2e-5 1.88149,0.32554 2.98828,0.97656 1.24998,1.02867 1.96613,2.53257 2.14844,4.51172 0.0651,0.26043 0.0716,0.80731 0.0195,1.64062 l -15.72266,5.42969 c 0.96354,2.82553 1.69271,4.58985 2.1875,5.29297 0.83333,0.89844 1.77734,1.34766 2.83204,1.34765 l 0.78125,0 c 2.08332,10e-6 4.99347,-1.21744 8.73046,-3.65234 l 0.0586,0 c 1.04164,0.4948 1.49086,1.10027 1.34765,1.81641 -0.15627,0.78125 -2.4935,2.30469 -7.01171,4.57031 -2.2396,0.85938 -4.02996,1.28906 -5.3711,1.28906 -1.09376,0 -2.32422,-0.36458 -3.6914,-1.09375 -2.04428,-1.3802 -3.27475,-3.98437 -3.69141,-7.8125 -0.10417,-1.71874 -0.0716,-3.07941 0.0977,-4.08203 0.39062,-1.97915 1.52994,-3.94529 3.41796,-5.89844 1.71875,-1.49737 3.21614,-2.47393 4.49219,-2.92968 2.55207,-0.89842 4.36848,-1.34764 5.44922,-1.34766 l 0.39063,-0.0586 m -9.80469,9.02343 -0.0977,0.48828 12.61719,-4.14062 c -0.83335,-1.91404 -1.84247,-2.87107 -3.02734,-2.87109 l -0.13672,0 c -0.48179,2e-5 -1.39325,0.30601 -2.73438,0.91796 -1.9922,0.63804 -3.59376,1.45185 -4.80469,2.44141 -0.95052,0.82033 -1.55599,1.87502 -1.8164,3.16406"
         inkscape:connector-curvature="0" />
      <path
         id="path3887"
         style="font-style:italic;font-variant:normal;font-stretch:normal;font-family:Manga Speak;-inkscape-font-specification:Manga Speak Italic;stroke-width:1.73843578000000010;stroke-miterlimit:4;stroke-dasharray:none;stroke:#ffffff;stroke-opacity:1;fill:#000000;fill-opacity:1"
         d="m 130.10547,362.47786 c 0.36455,0.80733 0.48174,1.56254 0.35156,2.26562 -0.14326,0.70317 -0.56644,1.15889 -1.26953,1.36719 -1.52347,0.4167 -5.44273,0.8529 -11.75781,1.30859 l -0.0586,0.11719 c -2.72137,10.50784 -5.28647,19.987 -7.69531,28.4375 -1.10678,3.69792 -1.75782,5.54688 -1.95312,5.54688 -0.26043,0.26041 -0.54689,0.39062 -0.85938,0.39062 -0.58595,0 -1.23048,-0.34505 -1.93359,-1.03515 l 0,-0.0391 9.33594,-33.20312 -9.33594,0.54687 c -0.54688,-0.67705 -0.76173,-1.31507 -0.64453,-1.91406 0.33853,-0.85934 0.73567,-1.28902 1.1914,-1.28906 l 24.62891,-2.5"
         inkscape:connector-curvature="0" />
      <path
         id="path3889"
         style="font-style:italic;font-variant:normal;font-stretch:normal;font-family:Manga Speak;-inkscape-font-specification:Manga Speak Italic;stroke-width:1.73843578000000010;stroke-miterlimit:4;stroke-dasharray:none;stroke:#ffffff;stroke-opacity:1;fill:#000000;fill-opacity:1"
         d="m 149.5,378.53255 c -1.10679,8.64584 -2.04429,14.88282 -2.8125,18.71093 -0.37762,1.88803 -0.96356,3.05339 -1.75781,3.4961 -0.71617,0.35156 -1.82945,0.52734 -3.33985,0.52734 l -0.13672,0 -0.33203,0.0586 0.0195,-0.0586 -0.21484,0.0586 c -1.52345,1e-5 -4.66147,0.19532 -9.41406,0.58594 l -0.64453,0 c -2.10938,0 -3.41797,-0.39062 -3.92578,-1.17187 -0.10417,-0.29948 -0.13672,-0.5599 -0.0977,-0.78125 0.28646,-0.83333 1.82291,-6.89452 4.60937,-18.1836 0.46875,-0.59893 1.19792,-0.89841 2.1875,-0.89843 l 1.36719,0 0.0586,0.0586 0.0586,0 c -0.48178,2.39585 -1.83594,7.33074 -4.0625,14.80469 -0.22136,1.14584 -0.007,1.90104 0.64453,2.26562 0.67708,0.35157 1.8164,0.52735 3.41797,0.52735 l 3.4375,0 c 2.39582,0 4.14061,-0.60547 5.23437,-1.81641 0.24738,-0.39062 0.40363,-0.73567 0.46875,-1.03516 l 0.9961,-16.36718 c 2.38279,-0.52081 3.79555,-0.78123 4.23828,-0.78125"
         inkscape:connector-curvature="0" />
      <path
         id="path3891"
         style="font-style:italic;font-variant:normal;font-stretch:normal;font-family:Manga Speak;-inkscape-font-specification:Manga Speak Italic;stroke-width:1.73843578000000010;stroke-miterlimit:4;stroke-dasharray:none;stroke:#ffffff;stroke-opacity:1;fill:#000000;fill-opacity:1"
         d="m 165.10547,365.70051 c 0.638,0.0652 1.33462,0.48832 2.08984,1.26954 0.14321,0.53388 -0.0196,1.94664 -0.48828,4.23828 l -0.23437,1.23047 c -0.45575,2.25263 -1.0482,4.96096 -1.77735,8.125 l 5.82031,0.91796 -0.11718,1.23047 c -0.16929,0.84638 -0.51435,1.26955 -1.03516,1.26953 -0.89846,2e-5 -2.68231,-0.16925 -5.35156,-0.50781 l -0.0977,0.15625 c -1.91407,8.00783 -3.44402,13.98438 -4.58984,17.92969 -0.026,0.11719 -0.26043,0.23438 -0.70313,0.35156 l -0.29297,0 c -0.54688,0 -1.38672,-0.33854 -2.51953,-1.01562 l 0.0195,-0.0586 4.27735,-17.77343 c -4.72657,-0.5729 -7.16797,-0.89842 -7.32422,-0.97657 l 0.21484,-1.58203 c 0.15625,-0.7682 0.42318,-1.24346 0.80078,-1.42578 0.49479,2e-5 2.83203,0.30601 7.01172,0.91797 l 0.0195,-0.0391 0.0586,-0.15625 c 2.18748,-9.19268 3.3203,-13.78903 3.39844,-13.78907 0.2604,-0.20829 0.53383,-0.31246 0.82031,-0.3125"
         inkscape:connector-curvature="0" />
      <path
         id="path3893"
         style="font-style:italic;font-variant:normal;font-stretch:normal;font-family:Manga Speak;-inkscape-font-specification:Manga Speak Italic;stroke-width:1.73843578000000010;stroke-miterlimit:4;stroke-dasharray:none;stroke:#ffffff;stroke-opacity:1;fill:#000000;fill-opacity:1"
         d="m 184.83203,378.6888 c 3.42446,2e-5 5.85285,1.862 7.28516,5.58593 0.57289,1.95314 0.64451,3.9909 0.21484,6.11328 -0.63804,3.1771 -2.26564,5.9961 -4.88281,8.45704 -2.42189,2.04427 -4.74611,3.0664 -6.97266,3.0664 l -0.46875,0 c -3.26823,0 -5.61849,-1.75781 -7.05078,-5.27344 -0.66406,-2.05728 -0.78125,-4.17967 -0.35156,-6.36718 0.72916,-3.65884 2.74088,-6.79686 6.03515,-9.41407 2.12239,-1.44529 4.18619,-2.16794 6.19141,-2.16796 m -8.94531,8.94531 c -0.54688,2.73439 -0.60547,5.55339 -0.17578,8.45703 0.61197,2.68229 1.95963,4.02344 4.04297,4.02344 3.17707,0 5.93097,-2.0638 8.26171,-6.19141 0.83332,-1.60155 1.3867,-3.05988 1.66016,-4.375 l 0.11719,-0.60547 c 0.53383,-2.68227 -0.51434,-4.92185 -3.14453,-6.71875 -0.79429,-0.35154 -1.46486,-0.52732 -2.01172,-0.52734 l -0.17578,0 c -0.79429,2e-5 -1.8034,0.35809 -3.02735,1.07422 -3.39844,1.75783 -5.2474,3.37892 -5.54687,4.86328"
         inkscape:connector-curvature="0" />
      <path
         id="path3895"
         style="font-style:italic;font-variant:normal;font-stretch:normal;font-family:Manga Speak;-inkscape-font-specification:Manga Speak Italic;stroke-width:1.73843578000000010;stroke-miterlimit:4;stroke-dasharray:none;stroke:#ffffff;stroke-opacity:1;fill:#000000;fill-opacity:1"
         d="m 206.14062,378.35676 c 1.43228,3e-5 2.82551,0.55992 4.17969,1.67969 1.05467,1.1719 1.39321,2.69533 1.01563,4.57031 -0.13023,0.6771 -0.39065,1.39976 -0.78125,2.16797 l -1.26953,-0.0391 -1.36719,0 -0.0977,-0.0977 c 0.2604,-0.72915 0.4427,-1.36066 0.54688,-1.89453 l 0,-0.0391 c 0.45571,-2.23956 -0.16278,-3.35935 -1.85547,-3.35937 -1.96616,2e-5 -4.6159,1.91408 -7.94922,5.74218 l -0.9375,4.92188 -0.82031,4.12109 c -0.72917,3.6849 -1.30209,5.52735 -1.71875,5.52735 -0.013,0.0651 -0.2474,0.14974 -0.70313,0.2539 -1.15885,-0.32552 -1.70573,-0.64453 -1.64062,-0.95703 l 3.94531,-19.29687 c 0.23437,-0.20832 0.54687,-0.31248 0.9375,-0.3125 0.52083,0.013 1.13281,0.14976 1.83594,0.41015 l 0,0.0586 -0.15625,1.01562 0.0391,0 c 2.16145,-2.98175 4.42707,-4.47263 6.79687,-4.47266"
         inkscape:connector-curvature="0" />
      <path
         id="path3897"
         style="font-style:italic;font-variant:normal;font-stretch:normal;font-family:Manga Speak;-inkscape-font-specification:Manga Speak Italic;stroke-width:1.73843578000000010;stroke-miterlimit:4;stroke-dasharray:none;stroke:#ffffff;stroke-opacity:1;fill:#000000;fill-opacity:1"
         d="m 220.08594,371.73567 c 1.41926,0.1042 2.05728,0.51435 1.91406,1.23047 -0.16928,0.88544 -1.01563,2.46096 -2.53906,4.72656 l -2.40235,-0.27344 1.95313,-5.68359 1.07422,0 m -1.44532,9.16016 c 0.78125,2e-5 1.07422,0.85939 0.87891,2.57812 l -0.33203,2.14844 -0.39063,1.97266 c -0.67708,3.3724 -1.83594,8.05339 -3.47656,14.04296 -0.58594,0.1823 -1.25651,0.27344 -2.01172,0.27344 -0.625,0 -0.96354,-0.17578 -1.01562,-0.52734 l 0.0195,-0.0586 3.39844,-18.76953 c 1.28905,-1.10675 2.26562,-1.66013 2.92968,-1.66015"
         inkscape:connector-curvature="0" />
      <path
         id="path3899"
         style="font-style:italic;font-variant:normal;font-stretch:normal;font-family:Manga Speak;-inkscape-font-specification:Manga Speak Italic;stroke-width:1.73843578000000010;stroke-miterlimit:4;stroke-dasharray:none;stroke:#ffffff;stroke-opacity:1;fill:#000000;fill-opacity:1"
         d="m 232.44922,378.3763 0.37109,0 c 2.16145,2e-5 3.60676,1.02866 4.33594,3.08593 0.3255,1.14586 0.44269,1.93362 0.35156,2.36328 l -4.25781,18.08594 -2.92969,-0.15625 -0.0977,-0.11719 0.21484,-0.80078 0.29297,-1.46484 0.27344,-1.07422 c -3.89324,2.22657 -6.6211,3.33985 -8.1836,3.33984 l -0.70312,0 c -1.13282,10e-6 -1.79037,-0.66406 -1.97266,-1.99218 -0.0391,-0.32552 -0.013,-0.91797 0.0781,-1.77735 0.45572,-2.22655 1.73176,-4.36848 3.82812,-6.42578 1.99218,-1.66665 3.83463,-2.87108 5.52734,-3.61328 1.0026,-0.46873 2.35025,-0.97655 4.04297,-1.52344 l 0.0977,-0.3125 0.3125,-1.5625 c 0.29946,-1.48435 -0.27996,-2.35024 -1.73828,-2.59765 l -0.48828,-0.0586 c -1.44533,2e-5 -3.33986,0.4883 -5.6836,1.46485 -0.66406,-0.8203 -0.94401,-1.49087 -0.83984,-2.01172 0.22135,-1.09373 2.33072,-2.02472 6.32812,-2.79297 l 0.83985,-0.0586 m -8.26172,18.02734 -0.0391,0.27344 c -0.1823,0.85938 0.17577,1.28906 1.07422,1.28906 1.22395,0 3.35285,-0.82682 6.38671,-2.48047 l 0,-0.0586 1.26954,-5.76172 c -1.65366,0.14324 -3.26824,0.66407 -4.84375,1.5625 -1.40626,1.04167 -2.13543,1.70574 -2.1875,1.99219 -0.89845,1.13282 -1.45183,2.19401 -1.66016,3.18359"
         inkscape:connector-curvature="0" />
      <path
         id="path3901"
         style="font-style:italic;font-variant:normal;font-stretch:normal;font-family:Manga Speak;-inkscape-font-specification:Manga Speak Italic;stroke-width:1.73843578000000010;stroke-miterlimit:4;stroke-dasharray:none;stroke:#ffffff;stroke-opacity:1;fill:#000000;fill-opacity:1"
         d="m 246.66797,365.30989 c 0.63801,4e-5 1.08723,0.58597 1.34765,1.75781 0.11718,2.13545 -0.50782,6.61461 -1.875,13.4375 l -0.5664,2.8125 c -2.51303,12.07032 -3.99089,18.10547 -4.4336,18.10547 -0.57292,0.32552 -1.15234,0.48828 -1.73828,0.48828 -0.61198,-0.0651 -0.88541,-0.26692 -0.82031,-0.60547 l 0.0195,-0.11718 c 0.3125,-0.41667 0.57943,-1.19792 0.80078,-2.34375 1.01563,-5.07812 2.43489,-15.55988 4.25782,-31.44532 1.0677,-1.39319 2.0703,-2.0898 3.00781,-2.08984"
         inkscape:connector-curvature="0" />
    </g>
    <g
       transform="matrix(1.0925235,-0.31364613,0.30487849,1.1239421,-177.04832,585.79182)"
       style="font-size:40px;font-style:normal;font-weight:normal;line-height:125%;letter-spacing:0px;word-spacing:0px;fill:#000000;fill-opacity:1;stroke:#000000;font-family:Sans;stroke-width:1.73843578000000010;stroke-miterlimit:4;stroke-dasharray:none;stroke-opacity:1"
       id="flowRoot2985">
      <path
         inkscape:connector-curvature="0"
         d="m 128.23047,315.44661 0.13672,0 c 0.49476,0.0261 0.72262,0.14977 0.68359,0.37109 -1.0417,3.60681 -4.01695,14.93492 -8.92578,33.98438 l -0.54687,2.07031 -0.0195,0.0391 -0.0391,0 c -1.28908,-0.10416 -1.9271,-0.19531 -1.91406,-0.27344 -1.27606,-4.59634 -2.62372,-8.62629 -4.04297,-12.08984 -0.35158,-0.85936 -0.78778,-1.56248 -1.30859,-2.10937 l -0.23438,-0.0977 c -0.14324,1e-5 -0.89845,0.80079 -2.26562,2.40234 -3.26824,3.63282 -5.98308,6.89454 -8.14453,9.78516 -0.15626,0.57292 -0.42319,0.85938 -0.80079,0.85937 l -0.11718,0 c -0.29949,10e-6 -0.891933,-0.20833 -1.777348,-0.625 -0.182293,10e-6 -0.214845,-0.30598 -0.09766,-0.91796 0.351561,-3.54166 2.174478,-14.41405 5.468758,-32.61719 0.31249,-0.24736 0.76822,-0.37106 1.36718,-0.3711 l 0.0391,0 c 1.08072,4e-5 1.86197,0.18233 2.34375,0.54688 l -0.0195,0.0977 c -0.1172,3e-5 -0.31903,0.70316 -0.60547,2.10937 l -0.44922,2.26563 c -0.53387,2.64325 -1.86199,9.87632 -3.98438,21.69921 l -0.0781,0.50782 0.0195,0 c 2.79947,-3.51562 5.22785,-6.31509 7.28516,-8.39844 1.04165,-1.06769 1.74477,-1.60154 2.10937,-1.60156 0.67707,0.28647 1.62759,1.52996 2.85156,3.73047 1.28905,2.35678 2.43488,4.70704 3.4375,7.05078 l 0.0195,-0.0391 c 4.66144,-18.51559 7.03123,-27.85152 7.10938,-28.00781 1.11976,-0.24736 1.95309,-0.37105 2.5,-0.37109"
         style="font-style:italic;font-variant:normal;font-stretch:normal;font-family:Manga Speak;-inkscape-font-specification:Manga Speak Italic;stroke-width:1.73843578000000010;stroke-miterlimit:4;stroke-dasharray:none;stroke:#000000;stroke-opacity:1;fill:#000000;fill-opacity:1"
         id="path6176" />
      <path
         inkscape:connector-curvature="0"
         d="m 138.23047,328.3763 0.37109,0 c 2.16145,2e-5 3.60676,1.02866 4.33594,3.08593 0.3255,1.14586 0.44269,1.93362 0.35156,2.36328 l -4.25781,18.08594 -2.92969,-0.15625 -0.0977,-0.11719 0.21484,-0.80078 0.29297,-1.46484 0.27344,-1.07422 c -3.89324,2.22657 -6.6211,3.33985 -8.1836,3.33984 l -0.70312,0 c -1.13282,10e-6 -1.79037,-0.66406 -1.97266,-1.99218 -0.0391,-0.32552 -0.013,-0.91797 0.0781,-1.77735 0.45572,-2.22655 1.73176,-4.36848 3.82812,-6.42578 1.99218,-1.66665 3.83463,-2.87108 5.52734,-3.61328 1.0026,-0.46873 2.35025,-0.97655 4.04297,-1.52344 l 0.0977,-0.3125 0.3125,-1.5625 c 0.29946,-1.48435 -0.27996,-2.35024 -1.73828,-2.59765 l -0.48828,-0.0586 c -1.44533,2e-5 -3.33986,0.4883 -5.6836,1.46485 -0.66406,-0.8203 -0.94401,-1.49087 -0.83984,-2.01172 0.22135,-1.09373 2.33072,-2.02472 6.32812,-2.79297 l 0.83985,-0.0586 m -8.26172,18.02734 -0.0391,0.27344 c -0.1823,0.85938 0.17577,1.28906 1.07422,1.28906 1.22395,0 3.35285,-0.82682 6.38671,-2.48047 l 0,-0.0586 1.26954,-5.76172 c -1.65366,0.14324 -3.26824,0.66407 -4.84375,1.5625 -1.40626,1.04167 -2.13543,1.70574 -2.1875,1.99219 -0.89845,1.13282 -1.45183,2.19401 -1.66016,3.18359"
         style="font-style:italic;font-variant:normal;font-stretch:normal;font-family:Manga Speak;-inkscape-font-specification:Manga Speak Italic;stroke-width:1.73843578000000010;stroke-miterlimit:4;stroke-dasharray:none;stroke:#000000;stroke-opacity:1;fill:#000000;fill-opacity:1"
         id="path6178" />
      <path
         inkscape:connector-curvature="0"
         d="m 158.93359,315.70051 c 0.63801,0.0652 1.33462,0.48832 2.08985,1.26954 0.14321,0.53388 -0.0195,1.94664 -0.48828,4.23828 l -0.23438,1.23047 c -0.45575,2.25263 -1.04819,4.96096 -1.77734,8.125 l 5.82031,0.91796 -0.11719,1.23047 c -0.16929,0.84638 -0.51434,1.26955 -1.03515,1.26953 -0.89846,2e-5 -2.68231,-0.16925 -5.35157,-0.50781 l -0.0977,0.15625 c -1.91408,8.00783 -3.44402,13.98438 -4.58985,17.92969 -0.026,0.11719 -0.26042,0.23438 -0.70312,0.35156 l -0.29297,0 c -0.54688,0 -1.38673,-0.33854 -2.51953,-1.01562 l 0.0195,-0.0586 4.27734,-17.77343 c -4.72657,-0.5729 -7.16797,-0.89842 -7.32422,-0.97657 l 0.21485,-1.58203 c 0.15624,-0.7682 0.42317,-1.24346 0.80078,-1.42578 0.49479,2e-5 2.83202,0.30601 7.01172,0.91797 l 0.0195,-0.0391 0.0586,-0.15625 c 2.18749,-9.19268 3.3203,-13.78903 3.39844,-13.78907 0.2604,-0.20829 0.53384,-0.31246 0.82031,-0.3125"
         style="font-style:italic;font-variant:normal;font-stretch:normal;font-family:Manga Speak;-inkscape-font-specification:Manga Speak Italic;stroke-width:1.73843578000000010;stroke-miterlimit:4;stroke-dasharray:none;stroke:#000000;stroke-opacity:1;fill:#000000;fill-opacity:1"
         id="path6180" />
      <path
         inkscape:connector-curvature="0"
         d="m 180.71094,328.22005 c 3.00779,2e-5 5.06508,0.93752 6.17187,2.8125 0.19529,0.48179 0.27993,0.80731 0.25391,0.97656 l -3.00781,2.94922 -0.0586,0 c -1.78387,-1.43228 -3.60678,-2.14842 -5.46875,-2.14844 -2.95574,2e-5 -5.55339,1.95965 -7.79297,5.87891 l -0.60547,1.69921 c -0.57292,2.85158 0.97656,4.9284 4.64844,6.23047 1.01562,0.26043 1.92707,0.39063 2.73438,0.39063 0.79425,0 2.05727,-0.30599 3.78906,-0.91797 l 0.27344,0 c 0.78123,1e-5 1.05467,0.56641 0.82031,1.69922 -0.53387,1.875 -0.96356,2.8125 -1.28906,2.8125 -2.47398,0.87239 -4.8047,1.30859 -6.99219,1.30859 -4.98698,0 -7.66276,-2.53255 -8.02734,-7.59765 -0.0521,-1.49739 0.0521,-2.89062 0.3125,-4.17969 l 0.11718,-0.58594 c 0.95052,-4.76561 3.97786,-8.23566 9.08203,-10.41016 1.92707,-0.61195 3.60676,-0.91794 5.03907,-0.91796"
         style="font-style:italic;font-variant:normal;font-stretch:normal;font-family:Manga Speak;-inkscape-font-specification:Manga Speak Italic;stroke-width:1.73843578000000010;stroke-miterlimit:4;stroke-dasharray:none;stroke:#000000;stroke-opacity:1;fill:#000000;fill-opacity:1"
         id="path6182" />
      <path
         inkscape:connector-curvature="0"
         d="m 196.86328,315.2513 0.0586,0 -3.53515,14.92187 c 1.49739,-1.09373 3.21613,-1.6406 5.15625,-1.64062 l 0.0586,0 c 2.20051,2e-5 4.00389,0.49481 5.41016,1.48437 0.92446,0.8594 1.46482,2.35679 1.62109,4.49219 0.0521,1.95314 -0.0912,3.78256 -0.42969,5.48828 l -0.17578,0.87891 c -0.57293,2.89063 -1.73829,6.4974 -3.49609,10.82031 -0.18231,0.14323 -0.33856,0.21484 -0.46875,0.21484 l -0.27344,0 c -0.52084,0 -1.13282,-0.22135 -1.83594,-0.66406 0.93749,-2.90364 1.71223,-5.86588 2.32422,-8.88672 l 0.0391,-0.21484 c 1.02863,-5.11718 0.99607,-8.19009 -0.0977,-9.21875 -0.55991,-0.58592 -1.41277,-0.87889 -2.55859,-0.87891 -1.57554,2e-5 -3.60027,0.5469 -6.07422,1.64063 l -4.00391,16.91406 -0.0586,0.0391 -0.0586,0 -1.85547,-0.0391 -0.0391,-0.0586 6.52344,-32.59765 c 0.24739,-1.22392 1.0677,-2.05075 2.46094,-2.48047 l 1.30859,-0.21484"
         style="font-style:italic;font-variant:normal;font-stretch:normal;font-family:Manga Speak;-inkscape-font-specification:Manga Speak Italic;stroke-width:1.73843578000000010;stroke-miterlimit:4;stroke-dasharray:none;stroke:#000000;stroke-opacity:1;fill:#000000;fill-opacity:1"
         id="path6184" />
      <path
         inkscape:connector-curvature="0"
         d="m 250.02734,312.47786 c 0.36455,0.80733 0.48174,1.56254 0.35157,2.26562 -0.14327,0.70317 -0.56644,1.15889 -1.26954,1.36719 -1.52346,0.4167 -5.44273,0.8529 -11.75781,1.30859 l -0.0586,0.11719 c -2.72137,10.50784 -5.28647,19.987 -7.69531,28.4375 -1.10679,3.69792 -1.75783,5.54688 -1.95313,5.54688 -0.26043,0.26041 -0.54688,0.39062 -0.85937,0.39062 -0.58595,0 -1.23048,-0.34505 -1.9336,-1.03515 l 0,-0.0391 9.33594,-33.20312 -9.33594,0.54687 c -0.54688,-0.67705 -0.76172,-1.31507 -0.64453,-1.91406 0.33854,-0.85934 0.73567,-1.28902 1.19141,-1.28906 l 24.6289,-2.5"
         style="font-style:italic;font-variant:normal;font-stretch:normal;font-family:Manga Speak;-inkscape-font-specification:Manga Speak Italic;stroke-width:1.73843578000000010;stroke-miterlimit:4;stroke-dasharray:none;stroke:#000000;stroke-opacity:1;fill:#000000;fill-opacity:1"
         id="path6186" />
      <path
         inkscape:connector-curvature="0"
         d="m 256.94141,315.2513 0.0586,0 -3.53516,14.92187 c 1.49739,-1.09373 3.21614,-1.6406 5.15625,-1.64062 l 0.0586,0 c 2.2005,2e-5 4.00389,0.49481 5.41015,1.48437 0.92446,0.8594 1.46483,2.35679 1.6211,4.49219 0.0521,1.95314 -0.0912,3.78256 -0.42969,5.48828 l -0.17578,0.87891 c -0.57294,2.89063 -1.7383,6.4974 -3.4961,10.82031 -0.1823,0.14323 -0.33855,0.21484 -0.46875,0.21484 l -0.27343,0 c -0.52085,0 -1.13283,-0.22135 -1.83594,-0.66406 0.93749,-2.90364 1.71223,-5.86588 2.32422,-8.88672 l 0.0391,-0.21484 c 1.02863,-5.11718 0.99608,-8.19009 -0.0977,-9.21875 -0.55991,-0.58592 -1.41277,-0.87889 -2.55859,-0.87891 -1.57553,2e-5 -3.60027,0.5469 -6.07422,1.64063 l -4.0039,16.91406 -0.0586,0.0391 -0.0586,0 -1.85547,-0.0391 -0.0391,-0.0586 6.52343,-32.59765 c 0.24739,-1.22392 1.06771,-2.05075 2.46094,-2.48047 l 1.3086,-0.21484"
         style="font-style:italic;font-variant:normal;font-stretch:normal;font-family:Manga Speak;-inkscape-font-specification:Manga Speak Italic;stroke-width:1.73843578000000010;stroke-miterlimit:4;stroke-dasharray:none;stroke:#000000;stroke-opacity:1;fill:#000000;fill-opacity:1"
         id="path6188" />
      <path
         inkscape:connector-curvature="0"
         d="m 282.41016,328.6888 0.54687,0 c 0.8854,2e-5 1.88149,0.32554 2.98828,0.97656 1.24998,1.02867 1.96613,2.53257 2.14844,4.51172 0.0651,0.26043 0.0716,0.80731 0.0195,1.64062 l -15.72266,5.42969 c 0.96354,2.82553 1.69271,4.58985 2.1875,5.29297 0.83333,0.89844 1.77734,1.34766 2.83204,1.34765 l 0.78125,0 c 2.08332,10e-6 4.99347,-1.21744 8.73046,-3.65234 l 0.0586,0 c 1.04164,0.4948 1.49086,1.10027 1.34765,1.81641 -0.15627,0.78125 -2.4935,2.30469 -7.01171,4.57031 -2.2396,0.85938 -4.02996,1.28906 -5.3711,1.28906 -1.09376,0 -2.32422,-0.36458 -3.6914,-1.09375 -2.04428,-1.3802 -3.27475,-3.98437 -3.69141,-7.8125 -0.10417,-1.71874 -0.0716,-3.07941 0.0977,-4.08203 0.39062,-1.97915 1.52994,-3.94529 3.41796,-5.89844 1.71875,-1.49737 3.21614,-2.47393 4.49219,-2.92968 2.55207,-0.89842 4.36848,-1.34764 5.44922,-1.34766 l 0.39063,-0.0586 m -9.80469,9.02343 -0.0977,0.48828 12.61719,-4.14062 c -0.83335,-1.91404 -1.84247,-2.87107 -3.02734,-2.87109 l -0.13672,0 c -0.48179,2e-5 -1.39325,0.30601 -2.73438,0.91796 -1.9922,0.63804 -3.59376,1.45185 -4.80469,2.44141 -0.95052,0.82033 -1.55599,1.87502 -1.8164,3.16406"
         style="font-style:italic;font-variant:normal;font-stretch:normal;font-family:Manga Speak;-inkscape-font-specification:Manga Speak Italic;stroke-width:1.73843578000000010;stroke-miterlimit:4;stroke-dasharray:none;stroke:#000000;stroke-opacity:1;fill:#000000;fill-opacity:1"
         id="path6190" />
      <path
         inkscape:connector-curvature="0"
         d="m 130.10547,362.47786 c 0.36455,0.80733 0.48174,1.56254 0.35156,2.26562 -0.14326,0.70317 -0.56644,1.15889 -1.26953,1.36719 -1.52347,0.4167 -5.44273,0.8529 -11.75781,1.30859 l -0.0586,0.11719 c -2.72137,10.50784 -5.28647,19.987 -7.69531,28.4375 -1.10678,3.69792 -1.75782,5.54688 -1.95312,5.54688 -0.26043,0.26041 -0.54689,0.39062 -0.85938,0.39062 -0.58595,0 -1.23048,-0.34505 -1.93359,-1.03515 l 0,-0.0391 9.33594,-33.20312 -9.33594,0.54687 c -0.54688,-0.67705 -0.76173,-1.31507 -0.64453,-1.91406 0.33853,-0.85934 0.73567,-1.28902 1.1914,-1.28906 l 24.62891,-2.5"
         style="font-style:italic;font-variant:normal;font-stretch:normal;font-family:Manga Speak;-inkscape-font-specification:Manga Speak Italic;stroke-width:1.73843578000000010;stroke-miterlimit:4;stroke-dasharray:none;stroke:#000000;stroke-opacity:1;fill:#000000;fill-opacity:1"
         id="path6192" />
      <path
         inkscape:connector-curvature="0"
         d="m 149.5,378.53255 c -1.10679,8.64584 -2.04429,14.88282 -2.8125,18.71093 -0.37762,1.88803 -0.96356,3.05339 -1.75781,3.4961 -0.71617,0.35156 -1.82945,0.52734 -3.33985,0.52734 l -0.13672,0 -0.33203,0.0586 0.0195,-0.0586 -0.21484,0.0586 c -1.52345,1e-5 -4.66147,0.19532 -9.41406,0.58594 l -0.64453,0 c -2.10938,0 -3.41797,-0.39062 -3.92578,-1.17187 -0.10417,-0.29948 -0.13672,-0.5599 -0.0977,-0.78125 0.28646,-0.83333 1.82291,-6.89452 4.60937,-18.1836 0.46875,-0.59893 1.19792,-0.89841 2.1875,-0.89843 l 1.36719,0 0.0586,0.0586 0.0586,0 c -0.48178,2.39585 -1.83594,7.33074 -4.0625,14.80469 -0.22136,1.14584 -0.007,1.90104 0.64453,2.26562 0.67708,0.35157 1.8164,0.52735 3.41797,0.52735 l 3.4375,0 c 2.39582,0 4.14061,-0.60547 5.23437,-1.81641 0.24738,-0.39062 0.40363,-0.73567 0.46875,-1.03516 l 0.9961,-16.36718 c 2.38279,-0.52081 3.79555,-0.78123 4.23828,-0.78125"
         style="font-style:italic;font-variant:normal;font-stretch:normal;font-family:Manga Speak;-inkscape-font-specification:Manga Speak Italic;stroke-width:1.73843578000000010;stroke-miterlimit:4;stroke-dasharray:none;stroke:#000000;stroke-opacity:1;fill:#000000;fill-opacity:1"
         id="path6194" />
      <path
         inkscape:connector-curvature="0"
         d="m 165.10547,365.70051 c 0.638,0.0652 1.33462,0.48832 2.08984,1.26954 0.14321,0.53388 -0.0196,1.94664 -0.48828,4.23828 l -0.23437,1.23047 c -0.45575,2.25263 -1.0482,4.96096 -1.77735,8.125 l 5.82031,0.91796 -0.11718,1.23047 c -0.16929,0.84638 -0.51435,1.26955 -1.03516,1.26953 -0.89846,2e-5 -2.68231,-0.16925 -5.35156,-0.50781 l -0.0977,0.15625 c -1.91407,8.00783 -3.44402,13.98438 -4.58984,17.92969 -0.026,0.11719 -0.26043,0.23438 -0.70313,0.35156 l -0.29297,0 c -0.54688,0 -1.38672,-0.33854 -2.51953,-1.01562 l 0.0195,-0.0586 4.27735,-17.77343 c -4.72657,-0.5729 -7.16797,-0.89842 -7.32422,-0.97657 l 0.21484,-1.58203 c 0.15625,-0.7682 0.42318,-1.24346 0.80078,-1.42578 0.49479,2e-5 2.83203,0.30601 7.01172,0.91797 l 0.0195,-0.0391 0.0586,-0.15625 c 2.18748,-9.19268 3.3203,-13.78903 3.39844,-13.78907 0.2604,-0.20829 0.53383,-0.31246 0.82031,-0.3125"
         style="font-style:italic;font-variant:normal;font-stretch:normal;font-family:Manga Speak;-inkscape-font-specification:Manga Speak Italic;stroke-width:1.73843578000000010;stroke-miterlimit:4;stroke-dasharray:none;stroke:#000000;stroke-opacity:1;fill:#000000;fill-opacity:1"
         id="path6196" />
      <path
         inkscape:connector-curvature="0"
         d="m 184.83203,378.6888 c 3.42446,2e-5 5.85285,1.862 7.28516,5.58593 0.57289,1.95314 0.64451,3.9909 0.21484,6.11328 -0.63804,3.1771 -2.26564,5.9961 -4.88281,8.45704 -2.42189,2.04427 -4.74611,3.0664 -6.97266,3.0664 l -0.46875,0 c -3.26823,0 -5.61849,-1.75781 -7.05078,-5.27344 -0.66406,-2.05728 -0.78125,-4.17967 -0.35156,-6.36718 0.72916,-3.65884 2.74088,-6.79686 6.03515,-9.41407 2.12239,-1.44529 4.18619,-2.16794 6.19141,-2.16796 m -8.94531,8.94531 c -0.54688,2.73439 -0.60547,5.55339 -0.17578,8.45703 0.61197,2.68229 1.95963,4.02344 4.04297,4.02344 3.17707,0 5.93097,-2.0638 8.26171,-6.19141 0.83332,-1.60155 1.3867,-3.05988 1.66016,-4.375 l 0.11719,-0.60547 c 0.53383,-2.68227 -0.51434,-4.92185 -3.14453,-6.71875 -0.79429,-0.35154 -1.46486,-0.52732 -2.01172,-0.52734 l -0.17578,0 c -0.79429,2e-5 -1.8034,0.35809 -3.02735,1.07422 -3.39844,1.75783 -5.2474,3.37892 -5.54687,4.86328"
         style="font-style:italic;font-variant:normal;font-stretch:normal;font-family:Manga Speak;-inkscape-font-specification:Manga Speak Italic;stroke-width:1.73843578000000010;stroke-miterlimit:4;stroke-dasharray:none;stroke:#000000;stroke-opacity:1;fill:#000000;fill-opacity:1"
         id="path6198" />
      <path
         inkscape:connector-curvature="0"
         d="m 206.14062,378.35676 c 1.43228,3e-5 2.82551,0.55992 4.17969,1.67969 1.05467,1.1719 1.39321,2.69533 1.01563,4.57031 -0.13023,0.6771 -0.39065,1.39976 -0.78125,2.16797 l -1.26953,-0.0391 -1.36719,0 -0.0977,-0.0977 c 0.2604,-0.72915 0.4427,-1.36066 0.54688,-1.89453 l 0,-0.0391 c 0.45571,-2.23956 -0.16278,-3.35935 -1.85547,-3.35937 -1.96616,2e-5 -4.6159,1.91408 -7.94922,5.74218 l -0.9375,4.92188 -0.82031,4.12109 c -0.72917,3.6849 -1.30209,5.52735 -1.71875,5.52735 -0.013,0.0651 -0.2474,0.14974 -0.70313,0.2539 -1.15885,-0.32552 -1.70573,-0.64453 -1.64062,-0.95703 l 3.94531,-19.29687 c 0.23437,-0.20832 0.54687,-0.31248 0.9375,-0.3125 0.52083,0.013 1.13281,0.14976 1.83594,0.41015 l 0,0.0586 -0.15625,1.01562 0.0391,0 c 2.16145,-2.98175 4.42707,-4.47263 6.79687,-4.47266"
         style="font-style:italic;font-variant:normal;font-stretch:normal;font-family:Manga Speak;-inkscape-font-specification:Manga Speak Italic;stroke-width:1.73843578000000010;stroke-miterlimit:4;stroke-dasharray:none;stroke:#000000;stroke-opacity:1;fill:#000000;fill-opacity:1"
         id="path6200" />
      <path
         inkscape:connector-curvature="0"
         d="m 220.08594,371.73567 c 1.41926,0.1042 2.05728,0.51435 1.91406,1.23047 -0.16928,0.88544 -1.01563,2.46096 -2.53906,4.72656 l -2.40235,-0.27344 1.95313,-5.68359 1.07422,0 m -1.44532,9.16016 c 0.78125,2e-5 1.07422,0.85939 0.87891,2.57812 l -0.33203,2.14844 -0.39063,1.97266 c -0.67708,3.3724 -1.83594,8.05339 -3.47656,14.04296 -0.58594,0.1823 -1.25651,0.27344 -2.01172,0.27344 -0.625,0 -0.96354,-0.17578 -1.01562,-0.52734 l 0.0195,-0.0586 3.39844,-18.76953 c 1.28905,-1.10675 2.26562,-1.66013 2.92968,-1.66015"
         style="font-style:italic;font-variant:normal;font-stretch:normal;font-family:Manga Speak;-inkscape-font-specification:Manga Speak Italic;stroke-width:1.73843578000000010;stroke-miterlimit:4;stroke-dasharray:none;stroke:#000000;stroke-opacity:1;fill:#000000;fill-opacity:1"
         id="path6202" />
      <path
         inkscape:connector-curvature="0"
         d="m 232.44922,378.3763 0.37109,0 c 2.16145,2e-5 3.60676,1.02866 4.33594,3.08593 0.3255,1.14586 0.44269,1.93362 0.35156,2.36328 l -4.25781,18.08594 -2.92969,-0.15625 -0.0977,-0.11719 0.21484,-0.80078 0.29297,-1.46484 0.27344,-1.07422 c -3.89324,2.22657 -6.6211,3.33985 -8.1836,3.33984 l -0.70312,0 c -1.13282,10e-6 -1.79037,-0.66406 -1.97266,-1.99218 -0.0391,-0.32552 -0.013,-0.91797 0.0781,-1.77735 0.45572,-2.22655 1.73176,-4.36848 3.82812,-6.42578 1.99218,-1.66665 3.83463,-2.87108 5.52734,-3.61328 1.0026,-0.46873 2.35025,-0.97655 4.04297,-1.52344 l 0.0977,-0.3125 0.3125,-1.5625 c 0.29946,-1.48435 -0.27996,-2.35024 -1.73828,-2.59765 l -0.48828,-0.0586 c -1.44533,2e-5 -3.33986,0.4883 -5.6836,1.46485 -0.66406,-0.8203 -0.94401,-1.49087 -0.83984,-2.01172 0.22135,-1.09373 2.33072,-2.02472 6.32812,-2.79297 l 0.83985,-0.0586 m -8.26172,18.02734 -0.0391,0.27344 c -0.1823,0.85938 0.17577,1.28906 1.07422,1.28906 1.22395,0 3.35285,-0.82682 6.38671,-2.48047 l 0,-0.0586 1.26954,-5.76172 c -1.65366,0.14324 -3.26824,0.66407 -4.84375,1.5625 -1.40626,1.04167 -2.13543,1.70574 -2.1875,1.99219 -0.89845,1.13282 -1.45183,2.19401 -1.66016,3.18359"
         style="font-style:italic;font-variant:normal;font-stretch:normal;font-family:Manga Speak;-inkscape-font-specification:Manga Speak Italic;stroke-width:1.73843578000000010;stroke-miterlimit:4;stroke-dasharray:none;stroke:#000000;stroke-opacity:1;fill:#000000;fill-opacity:1"
         id="path6204" />
      <path
         inkscape:connector-curvature="0"
         d="m 246.66797,365.30989 c 0.63801,4e-5 1.08723,0.58597 1.34765,1.75781 0.11718,2.13545 -0.50782,6.61461 -1.875,13.4375 l -0.5664,2.8125 c -2.51303,12.07032 -3.99089,18.10547 -4.4336,18.10547 -0.57292,0.32552 -1.15234,0.48828 -1.73828,0.48828 -0.61198,-0.0651 -0.88541,-0.26692 -0.82031,-0.60547 l 0.0195,-0.11718 c 0.3125,-0.41667 0.57943,-1.19792 0.80078,-2.34375 1.01563,-5.07812 2.43489,-15.55988 4.25782,-31.44532 1.0677,-1.39319 2.0703,-2.0898 3.00781,-2.08984"
         style="font-style:italic;font-variant:normal;font-stretch:normal;font-family:Manga Speak;-inkscape-font-specification:Manga Speak Italic;stroke-width:1.73843578000000010;stroke-miterlimit:4;stroke-dasharray:none;stroke:#000000;stroke-opacity:1;fill:#000000;fill-opacity:1"
         id="path6206" />
    </g>
    <g
       id="g3919"
       style="filter:url(#filter3941);stroke:#ffffff;stroke-opacity:1">
      <path
         style="fill:none;stroke:#ffffff;stroke-width:7.29999970999999981;stroke-linecap:butt;stroke-linejoin:miter;stroke-miterlimit:4;stroke-opacity:1;stroke-dasharray:none;marker-start:none;marker-end:none"
         d="M 151.43503,993.41321 C 178.98147,1019.2514 8.841634,1039.2551 8.841634,1039.2551 l 0,0 21.064933,-19.1702 0,0"
         id="path3921"
         inkscape:connector-curvature="0" />
      <path
         style="fill:none;stroke:#ffffff;stroke-width:7.29999970999999981;stroke-linecap:butt;stroke-linejoin:miter;stroke-miterlimit:4;stroke-opacity:1;stroke-dasharray:none"
         d="m 6.7434094,1040.4392 34.4683496,6.5561 0,0 0,0"
         id="path3923"
         inkscape:connector-curvature="0" />
    </g>
    <g
       id="g3915">
      <path
         inkscape:connector-curvature="0"
         id="path2995"
         d="M 151.43503,993.41321 C 178.98147,1019.2514 8.841634,1039.2551 8.841634,1039.2551 l 0,0 21.064933,-19.1702 0,0"
         style="fill:none;stroke:#000000;stroke-width:7.29999971;stroke-linecap:butt;stroke-linejoin:miter;stroke-miterlimit:4;stroke-opacity:1;stroke-dasharray:none;marker-start:none;marker-end:none" />
      <path
         inkscape:connector-curvature="0"
         id="path6173"
         d="m 6.7434094,1040.4392 34.4683496,6.5561 0,0 0,0"
         style="fill:none;stroke:#000000;stroke-width:7.29999971;stroke-linecap:butt;stroke-linejoin:miter;stroke-miterlimit:4;stroke-opacity:1;stroke-dasharray:none" />
    </g>
  </g>
</svg>
